<mxfile host="app.diagrams.net" agent="Mozilla/5.0 (Windows NT 10.0; Win64; x64) AppleWebKit/537.36 (KHTML, like Gecko) Chrome/129.0.0.0 Safari/537.36" version="24.7.17">
  <diagram name="Page-1" id="f1b7ffb7-ca1e-a977-7cf5-a751b3c06c05">
    <mxGraphModel dx="1909" dy="1022" grid="1" gridSize="10" guides="1" tooltips="1" connect="1" arrows="1" fold="1" page="1" pageScale="1" pageWidth="826" pageHeight="1169" background="none" math="0" shadow="0">
      <root>
        <mxCell id="0" />
        <mxCell id="1" parent="0" />
        <mxCell id="a6NXhVEHbj_cX5EGlN5I-61" value="" style="rounded=0;whiteSpace=wrap;html=1;" vertex="1" parent="1">
          <mxGeometry x="3" width="820" height="220" as="geometry" />
        </mxCell>
        <mxCell id="a6NXhVEHbj_cX5EGlN5I-62" value="&lt;b&gt;&lt;font style=&quot;font-size: 30px;&quot;&gt;Name&lt;/font&gt;&lt;/b&gt;" style="text;html=1;align=center;verticalAlign=middle;whiteSpace=wrap;rounded=0;strokeWidth=1;fontSize=24;" vertex="1" parent="1">
          <mxGeometry x="268" y="10" width="290" height="50" as="geometry" />
        </mxCell>
        <mxCell id="a6NXhVEHbj_cX5EGlN5I-63" value="&lt;font style=&quot;font-size: 14px;&quot;&gt;links&lt;/font&gt;" style="rounded=0;whiteSpace=wrap;html=1;" vertex="1" parent="1">
          <mxGeometry x="18" y="60" width="790" height="30" as="geometry" />
        </mxCell>
        <mxCell id="a6NXhVEHbj_cX5EGlN5I-64" value="" style="rounded=0;whiteSpace=wrap;html=1;" vertex="1" parent="1">
          <mxGeometry x="18" y="110" width="790" height="90" as="geometry" />
        </mxCell>
        <mxCell id="a6NXhVEHbj_cX5EGlN5I-65" value="&lt;span style=&quot;font-size: 35px;&quot;&gt;ASCII ART&lt;/span&gt;" style="text;html=1;align=center;verticalAlign=middle;whiteSpace=wrap;rounded=0;" vertex="1" parent="1">
          <mxGeometry x="28" y="120" width="770" height="70" as="geometry" />
        </mxCell>
        <mxCell id="a6NXhVEHbj_cX5EGlN5I-66" value="" style="whiteSpace=wrap;html=1;aspect=fixed;labelBackgroundColor=#FFFFFF;" vertex="1" parent="1">
          <mxGeometry x="3" y="220" width="820" height="820" as="geometry" />
        </mxCell>
        <mxCell id="a6NXhVEHbj_cX5EGlN5I-67" value="about" style="rounded=0;whiteSpace=wrap;html=1;" vertex="1" parent="1">
          <mxGeometry x="17" y="230" width="792" height="160" as="geometry" />
        </mxCell>
        <mxCell id="a6NXhVEHbj_cX5EGlN5I-68" value="skills" style="rounded=0;whiteSpace=wrap;html=1;" vertex="1" parent="1">
          <mxGeometry x="17" y="410" width="792" height="140" as="geometry" />
        </mxCell>
        <mxCell id="a6NXhVEHbj_cX5EGlN5I-70" value="portfolio" style="rounded=0;whiteSpace=wrap;html=1;align=left;" vertex="1" parent="1">
          <mxGeometry x="17" y="570" width="792" height="330" as="geometry" />
        </mxCell>
        <mxCell id="a6NXhVEHbj_cX5EGlN5I-71" value="additions" style="rounded=0;whiteSpace=wrap;html=1;" vertex="1" parent="1">
          <mxGeometry x="17" y="910" width="792" height="110" as="geometry" />
        </mxCell>
        <mxCell id="a6NXhVEHbj_cX5EGlN5I-73" value="contact info" style="rounded=0;whiteSpace=wrap;html=1;" vertex="1" parent="1">
          <mxGeometry x="0.5" y="1040" width="825" height="120" as="geometry" />
        </mxCell>
        <mxCell id="a6NXhVEHbj_cX5EGlN5I-74" value="proj 1" style="rounded=0;whiteSpace=wrap;html=1;align=left;" vertex="1" parent="1">
          <mxGeometry x="28" y="585" width="772" height="145" as="geometry" />
        </mxCell>
        <mxCell id="a6NXhVEHbj_cX5EGlN5I-75" value="proj 2" style="rounded=0;whiteSpace=wrap;html=1;align=left;" vertex="1" parent="1">
          <mxGeometry x="26" y="740" width="772" height="150" as="geometry" />
        </mxCell>
        <mxCell id="a6NXhVEHbj_cX5EGlN5I-76" value="img" style="rounded=0;whiteSpace=wrap;html=1;" vertex="1" parent="1">
          <mxGeometry x="70" y="800" width="700" height="70" as="geometry" />
        </mxCell>
        <mxCell id="a6NXhVEHbj_cX5EGlN5I-78" value="code" style="rounded=0;whiteSpace=wrap;html=1;" vertex="1" parent="1">
          <mxGeometry x="70" y="650" width="700" height="70" as="geometry" />
        </mxCell>
        <mxCell id="a6NXhVEHbj_cX5EGlN5I-79" value="info" style="text;html=1;align=center;verticalAlign=middle;whiteSpace=wrap;rounded=0;" vertex="1" parent="1">
          <mxGeometry x="70" y="600" width="60" height="30" as="geometry" />
        </mxCell>
        <mxCell id="a6NXhVEHbj_cX5EGlN5I-80" value="info" style="text;html=1;align=center;verticalAlign=middle;whiteSpace=wrap;rounded=0;" vertex="1" parent="1">
          <mxGeometry x="70" y="750" width="60" height="30" as="geometry" />
        </mxCell>
      </root>
    </mxGraphModel>
  </diagram>
</mxfile>
